HIERARCHY
ROOT root
{
	OFFSET	0	13.1	24.9
	CHANNELS 6  Xposition Yposition Zposition Xrotation Yrotation Zrotation
	JOINT spine_1
	{
		OFFSET	0	9.99999	0
		CHANNELS 3  Xrotation Yrotation Zrotation
		JOINT spine_2
		{
			OFFSET	0	112	-10
			CHANNELS 3  Xrotation Yrotation Zrotation
			JOINT spine_3
			{
				OFFSET	0	206.5	19.3
				CHANNELS 3  Xrotation Yrotation Zrotation
				JOINT spine_4
				{
					OFFSET	0	110.4	14.6
					CHANNELS 3  Xrotation Yrotation Zrotation
					JOINT neck_1
					{
						OFFSET	0	71.8	-50.3
						CHANNELS 3  Xrotation Yrotation Zrotation
						JOINT neck_2
						{
							OFFSET	0	86.2	-25.8
							CHANNELS 3  Xrotation Yrotation Zrotation
							JOINT head_ee
							{
								OFFSET	0	179.8	-8.7
								CHANNELS 3  Xrotation Yrotation Zrotation
								End Site
								{
									OFFSET	1	0	0
								}
							}
						}
					}
					JOINT left_clavicle
					{
						OFFSET	-43.2	22.4	-70.8
						CHANNELS 3  Xrotation Yrotation Zrotation
						JOINT left_shoulder
						{
							OFFSET	-93.9	-5.79999	48.7
							CHANNELS 3  Xrotation Yrotation Zrotation
							JOINT left_elbow
							{
								OFFSET	-291.4	-30.8	15.2
								CHANNELS 3  Xrotation Yrotation Zrotation
								JOINT left_lowarm_twist
								{
									OFFSET	-110.7	-3.89999	13.6
									CHANNELS 3  Xrotation Yrotation Zrotation
									JOINT left_hand
									{
										OFFSET	-110.7	-3.89999	13.6
										CHANNELS 3  Xrotation Yrotation Zrotation
										JOINT left_ee
										{
											OFFSET	-80.8	-5.10001	12.1
											CHANNELS 3  Xrotation Yrotation Zrotation
											End Site
											{
												OFFSET	1	0	0
											}
										}
									}
								}
							}
						}
					}
					JOINT right_clavicle
					{
						OFFSET	43.2	22.4	-70.8
						CHANNELS 3  Xrotation Yrotation Zrotation
						JOINT right_shoulder
						{
							OFFSET	93.9	-5.79999	48.7
							CHANNELS 3  Xrotation Yrotation Zrotation
							JOINT right_elbow
							{
								OFFSET	291.4	-30.8	15.2
								CHANNELS 3  Xrotation Yrotation Zrotation
								JOINT right_lowarm_twist
								{
									OFFSET	110.7	-3.89999	13.6
									CHANNELS 3  Xrotation Yrotation Zrotation
									JOINT right_hand
									{
										OFFSET	110.7	-3.89999	13.6
										CHANNELS 3  Xrotation Yrotation Zrotation
										JOINT right_ee
										{
											OFFSET	80.8	-5.10001	12.1
											CHANNELS 3  Xrotation Yrotation Zrotation
											End Site
											{
												OFFSET	1	0	0
											}
										}
									}
								}
							}
						}
					}
				}
			}
		}
	}
	JOINT left_hip
	{
		OFFSET	-82.8	-127.5	0.300001
		CHANNELS 3  Xrotation Yrotation Zrotation
		JOINT left_knee
		{
			OFFSET	-28.2	-396.7	2.2
			CHANNELS 3  Xrotation Yrotation Zrotation
			JOINT left_ankle
			{
				OFFSET	-11.7	-411.3	35.4
				CHANNELS 3  Xrotation Yrotation Zrotation
				JOINT left_toes
				{
					OFFSET	0	-60	-88.6
					CHANNELS 3  Xrotation Yrotation Zrotation
					JOINT left_foot_ee
					{
						OFFSET	-22.5	-16.5	-42.2
						CHANNELS 3  Xrotation Yrotation Zrotation
						End Site
						{
							OFFSET	1	0	0
						}
					}
				}
			}
		}
	}
	JOINT right_hip
	{
		OFFSET	82.8	-127.5	0.300001
		CHANNELS 3  Xrotation Yrotation Zrotation
		JOINT right_knee
		{
			OFFSET	28.2	-396.7	2.2
			CHANNELS 3  Xrotation Yrotation Zrotation
			JOINT right_ankle
			{
				OFFSET	11.7	-411.3	35.4
				CHANNELS 3  Xrotation Yrotation Zrotation
				JOINT right_toes
				{
					OFFSET	0	-60	-88.6
					CHANNELS 3  Xrotation Yrotation Zrotation
					JOINT right_foot_ee
					{
						OFFSET	22.5	-16.5	-42.2
						CHANNELS 3  Xrotation Yrotation Zrotation
						End Site
						{
							OFFSET	1	0	0
						}
					}
				}
			}
		}
	}
}
MOTION
Frames: 10
Frame Time: 0.02
2871.84446094 701.846 -1680.35635254 -0.882381386458 47.4030119607 -9.56970043877 1.39818 0.686356 4.67773 1.41027 0.387647 4.71182 1.44379 -0.493674 4.70191 1.41305 0.254247 4.72087 -4.21791 16.5634 -5.10028 -3.67713 34.1987 -2.65875 -0.0 0.0 -0.0 -4.12903 17.4368 -4.33781 11.3284 -21.1803 63.6207 2.26941 -48.3395 1.01858 -9.67161 -0.439399 1.15433 -0.141383 17.4346 6.22501 -0.0 0.0 -0.0 13.7157 25.9344 -27.3464 -18.2766 8.26596 -68.1813 0.261686 7.38632 -0.0168912 30.3808 -0.0544296 3.83542 -3.54551 -17.5041 14.6002 0.0 0.0 0.0 -6.70087 27.7167 16.7946 -1.3828 0.0544624 0.205217 33.7533 -13.9644 -4.53914 -31.9291 0.0 0.0 -0.0 0.0 -0.0 14.1418 22.5329 10.6706 -56.6532 1.84964 -8.1465 2.88893 14.3463 0.454702 -31.2063 0.0 0.0 0.0 0.0 0.0 
2871.64397339 701.846 -1669.05299852 -0.920048251329 49.5239808998 -9.5193881727 1.39818 0.686356 4.67773 1.41027 0.387647 4.71182 1.44379 -0.493674 4.70191 1.41305 0.254247 4.72087 -4.21791 16.5634 -5.10028 -3.67713 34.1987 -2.65875 -0.0 0.0 -0.0 -4.12903 17.4368 -4.33781 11.3284 -21.1803 63.6207 2.26941 -48.3395 1.01858 -9.67161 -0.439399 1.15433 -0.141383 17.4346 6.22501 -0.0 0.0 -0.0 13.7157 25.9344 -27.3464 -18.2766 8.26596 -68.1813 0.261686 7.38632 -0.0168912 30.3808 -0.0544296 3.83542 -3.54551 -17.5041 14.6002 0.0 0.0 0.0 -6.70087 27.7167 16.7946 -1.3828 0.0544624 0.205217 33.7533 -13.9644 -4.53914 -31.9291 0.0 0.0 -0.0 0.0 -0.0 14.1418 22.5329 10.6706 -56.6532 1.84964 -8.1465 2.88893 14.3463 0.454702 -31.2063 0.0 0.0 0.0 0.0 0.0 
2858.88775508 712.169 -1652.33272007 -1.04513782568 52.7597062811 -9.066149163 1.41278 0.806139 4.52784 1.42403 0.516696 4.56984 1.46694 -0.338174 4.58648 1.43781 0.389638 4.5824 -5.0 16.9189 -4.53288 -4.59572 34.5126 -1.74072 -0.0 0.0 -0.0 -4.32882 17.7045 -4.58782 11.9053 -20.6836 63.1393 2.47376 -50.7762 1.17414 -10.0967 -0.463142 1.20325 -0.226538 17.0916 5.56829 -0.0 0.0 -0.0 13.642 25.9987 -27.1668 -19.1974 7.41064 -68.1546 0.245967 6.94712 -0.0149301 30.2014 -0.0600855 3.81321 -3.39899 -16.0579 14.5104 0.0 0.0 0.0 -8.2871 27.8555 17.3309 -1.1472 0.0455336 0.170162 35.3797 -13.8517 -4.69944 -31.2739 0.0 0.0 -0.0 0.0 -0.0 14.2108 19.9025 10.1192 -53.7494 1.56415 -7.80184 3.6369 16.0392 0.578469 -30.6239 0.0 0.0 0.0 0.0 0.0 
2839.92950104 719.957 -1630.29076908 0.084855000987 56.2689005729 -10.3466106166 1.40811 0.741769 4.54925 1.41951 0.451098 4.58712 1.45726 -0.406831 4.59125 1.428 0.322588 4.59792 -5.08754 17.1955 -4.32856 -4.69815 34.8823 -1.45112 -0.0 0.0 -0.0 -4.48328 17.7141 -4.82609 12.4599 -20.3055 62.8123 2.58764 -52.0325 1.26315 -10.5674 -0.489851 1.25722 -0.344612 16.8216 4.73678 -0.0 0.0 -0.0 13.5326 26.1598 -26.8926 -20.5559 6.76792 -68.249 0.223097 6.30665 -0.0122908 29.7633 -0.0736118 3.75888 -3.22507 -14.1391 14.4799 0.0 0.0 0.0 -10.4424 27.2028 17.8513 -2.68839 0.101318 0.400102 36.1662 -14.1438 -4.78481 -30.6652 0.0 0.0 -0.0 0.0 -0.0 15.4119 17.6157 8.97324 -49.9857 1.22092 -7.33467 2.60626 17.257 0.419998 -30.5138 0.0 0.0 0.0 0.0 0.0 
2821.56205425 722.325 -1615.19656047 0.973067210236 58.8805134477 -9.85111218574 1.42869 0.601413 4.34888 1.43915 0.323736 4.37826 1.46518 -0.492949 4.36248 1.43869 0.201525 4.38557 -5.20649 17.59 -4.03712 -4.83791 35.4109 -1.03902 -0.0 0.0 -0.0 -4.69008 17.6941 -5.15343 13.2305 -19.7719 62.3533 2.75734 -53.7817 1.39852 -11.2396 -0.52877 1.33391 -0.512549 16.4423 3.55226 -0.0 0.0 -0.0 13.5523 26.3064 -26.9204 -21.9564 6.02266 -68.503 0.198649 5.62024 -0.0097508 29.1411 -0.0921017 3.68156 -2.98608 -11.3991 14.4232 0.0 0.0 0.0 -13.2189 26.2851 18.3111 -4.73299 0.165731 0.70726 37.2796 -14.61 -4.90532 -29.7963 0.0 0.0 -0.0 0.0 -0.0 17.0366 14.7387 7.9037 -44.6051 0.785424 -6.63057 1.16076 18.9404 0.190627 -30.3536 0.0 0.0 0.0 0.0 0.0 
2807.86119163 718.679 -1599.97656191 2.06344214224 60.6058188419 -10.3476453028 1.44012 0.407247 4.21113 1.44997 0.138701 4.22847 1.46117 -0.647742 4.18095 1.43678 0.0200752 4.23069 -5.24914 18.1646 -3.68589 -4.88658 36.2221 -0.559714 -0.0 0.0 -0.0 -4.91717 17.4141 -5.57807 14.1704 -19.0118 61.8042 2.96706 -55.7587 1.56986 -11.9729 -0.572252 1.41705 -0.718599 15.9171 2.06697 -0.0 0.0 -0.0 13.6077 26.5777 -27.0157 -23.6521 5.51858 -68.6688 0.194751 5.51063 -0.00937267 28.1922 -0.118681 3.56327 -2.68041 -7.58686 14.3943 0.0 0.0 0.0 -14.3387 25.6314 18.0507 -6.70006 0.217313 1.00471 38.5358 -15.2422 -5.04209 -28.9037 0.0 0.0 -0.0 0.0 -0.0 17.6049 11.7126 6.25516 -38.1538 0.353512 -5.73809 -1.02447 20.4926 -0.171738 -30.2964 0.0 0.0 0.0 0.0 0.0 
2796.67858464 712.89 -1584.10624178 2.78762276018 62.288473869 -10.7617564258 1.45247 0.218471 4.22203 1.46238 -0.0503862 4.22737 1.45934 -0.833963 4.14475 1.43542 -0.169523 4.22428 -5.19686 18.9441 -3.30655 -4.81772 37.3809 -0.0504254 -0.0 0.0 -0.0 -5.26251 16.8989 -6.25505 14.9839 -17.7542 60.525 3.04166 -56.4169 1.63177 -12.5639 -0.608067 1.48365 -0.777684 14.615 1.14749 -0.0 0.0 -0.0 13.4981 26.8135 -26.7312 -24.5888 5.02058 -68.7698 0.217067 6.13751 -0.0116372 27.2325 -0.143566 3.4432 -2.35157 -3.61612 14.1583 0.0 0.0 0.0 -15.9039 24.6743 16.9283 -5.55858 0.188624 0.831891 39.074 -14.1698 -5.05715 -28.7016 0.0 0.0 -0.0 0.0 -0.0 17.946 7.82367 5.37187 -31.6732 0.02365 -4.79927 -4.21954 22.6306 -0.7285 -31.8582 0.0 0.0 0.0 0.0 0.0 
2768.02932164 695.596 -1576.27740938 3.54900386193 62.7853299603 -10.8017706138 1.53587 0.329359 4.15311 1.54546 0.0646519 4.16562 1.55076 -0.702575 4.10656 1.52724 -0.0457895 4.16587 -4.76298 18.7297 -5.38116 -4.18482 38.4462 -2.41908 -0.0 0.0 -0.0 -5.34549 15.4577 -6.76031 17.6165 -16.9593 58.0387 3.3755 -59.1049 1.91423 -14.5932 -0.736261 1.7095 -1.22808 13.038 -2.3579 -0.0 0.0 -0.0 12.6896 25.5299 -25.0151 -24.4924 3.93892 -69.2395 0.168093 4.76005 -0.00698644 25.1418 -0.190789 3.18032 -2.14972 1.86678 15.3938 0.0 0.0 0.0 -21.1753 23.1585 19.5244 -0.186547 0.0076365 0.027609 36.3306 -11.4897 -4.72858 -28.6301 0.0 0.0 -0.0 0.0 -0.0 17.5394 4.56399 -2.13513 -9.27888 -0.269408 -1.39698 -10.0956 27.1614 -1.85746 -35.9292 0.0 0.0 0.0 0.0 0.0 
2765.48477404 713.865 -1571.5576891 0.215288556591 62.2612190495 -7.09617842643 1.59363 1.20659 4.14124 1.60267 0.94087 4.20947 1.67331 0.162265 4.3101 1.64838 0.840314 4.23065 -5.09365 17.4798 -6.6178 -4.54264 37.0792 -3.79254 -0.0 0.0 -0.0 -5.38675 15.4884 -6.81982 17.8014 -16.6252 58.3541 3.73805 -61.6129 2.2294 -16.2963 -0.849987 1.89548 -1.60066 11.7167 -5.31997 -0.0 0.0 -0.0 12.4383 24.186 -24.5807 -23.7204 3.38151 -70.889 0.170692 4.83331 -0.00720379 24.7393 -0.198779 3.12952 -2.01825 6.12354 16.4354 0.0 0.0 0.0 -21.1091 23.3757 18.6035 6.97767 -0.349542 -1.01264 29.8545 -8.3865 -3.99982 -28.6541 0.0 0.0 -0.0 0.0 -0.0 15.8053 3.44138 -3.88808 4.39208 0.205621 0.642337 -14.9143 31.0788 -2.91058 -37.3479 0.0 0.0 0.0 0.0 0.0 
2748.44982215 710.964 -1569.03978275 1.50106446739 62.6441955927 -8.63040576782 1.63874 1.19477 4.32213 1.64867 0.917589 4.38922 1.72038 0.11039 4.48257 1.69328 0.816247 4.40915 -5.32393 17.2944 -7.09942 -4.78541 37.1048 -4.23996 -0.0 0.0 -0.0 -5.32537 14.3547 -7.00959 17.8157 -16.4434 57.868 3.74474 -61.6557 2.23529 -16.5094 -0.864611 1.91852 -1.6605 11.6804 -5.71806 -0.0 0.0 -0.0 12.2221 23.1082 -24.1889 -23.7314 3.57636 -71.1717 0.179376 5.07796 -0.00795397 23.6873 -0.217969 2.99652 -1.98292 7.81233 16.9463 0.0 0.0 0.0 -23.4548 22.5644 20.0064 7.4859 -0.379795 -1.08465 29.7294 -8.21722 -3.98319 -28.7351 0.0 0.0 -0.0 0.0 -0.0 16.8408 3.02775 -4.70925 5.92473 0.288911 0.862609 -14.6818 29.9672 -2.81953 -38.4874 0.0 0.0 0.0 0.0 0.0 
